<?xml version="1.0" encoding="UTF-8" standalone="no"?>
<!-- Created with Inkscape (http://www.inkscape.org/) -->

<svg
   width="42.248215mm"
   height="48.96508mm"
   viewBox="0 0 42.248215 48.96508"
   version="1.1"
   id="svg5"
   inkscape:version="1.2.2 (732a01da63, 2022-12-09)"
   sodipodi:docname="kontext.svg"
   xmlns:inkscape="http://www.inkscape.org/namespaces/inkscape"
   xmlns:sodipodi="http://sodipodi.sourceforge.net/DTD/sodipodi-0.dtd"
   xmlns:xlink="http://www.w3.org/1999/xlink"
   xmlns="http://www.w3.org/2000/svg"
   xmlns:svg="http://www.w3.org/2000/svg">
  <sodipodi:namedview
     id="namedview7"
     pagecolor="#505050"
     bordercolor="#eeeeee"
     borderopacity="1"
     inkscape:showpageshadow="0"
     inkscape:pageopacity="0"
     inkscape:pagecheckerboard="0"
     inkscape:deskcolor="#505050"
     inkscape:document-units="mm"
     showgrid="false"
     inkscape:zoom="0.74564396"
     inkscape:cx="276.94183"
     inkscape:cy="360.76199"
     inkscape:window-width="1920"
     inkscape:window-height="1017"
     inkscape:window-x="-8"
     inkscape:window-y="-8"
     inkscape:window-maximized="1"
     inkscape:current-layer="layer1" />
  <defs
     id="defs2">
    <linearGradient
       inkscape:collect="always"
       id="linearGradient3393">
      <stop
         style="stop-color:#ff7f2a;stop-opacity:1;"
         offset="0"
         id="stop3389" />
      <stop
         style="stop-color:#dc5b00;stop-opacity:1;"
         offset="1"
         id="stop3391" />
    </linearGradient>
    <linearGradient
       inkscape:collect="always"
       xlink:href="#linearGradient3393"
       id="linearGradient3525"
       gradientUnits="userSpaceOnUse"
       gradientTransform="matrix(2.591791,0,0,2.591791,-247.15859,-64.502019)"
       x1="112.22468"
       y1="58.375206"
       x2="111.63087"
       y2="59.169521" />
  </defs>
  <g
     inkscape:label="Layer 1"
     inkscape:groupmode="layer"
     id="layer1"
     transform="translate(-12.881558,-62.917471)">
    <g
       id="g11763">
      <ellipse
         style="fill:none;fill-opacity:1;stroke:#000000;stroke-width:9.00737;stroke-linecap:square;stroke-dasharray:none;stroke-opacity:1"
         id="ellipse5686"
         cx="66.087387"
         cy="47.047359"
         rx="11.012072"
         ry="3.6706908"
         transform="rotate(30)" />
      <ellipse
         style="fill:none;fill-opacity:1;stroke:#000000;stroke-width:9.00737;stroke-linecap:square;stroke-dasharray:none;stroke-opacity:1"
         id="ellipse7234"
         cx="-7.7005162"
         cy="80.757027"
         rx="11.012072"
         ry="3.6706908"
         transform="rotate(-30)" />
      <g
         id="g3511"
         transform="matrix(2.591791,0,0,2.591791,-353.85687,-202.13885)">
        <path
           style="color:#000000;fill:#000000;stroke-width:2.49995;stroke-linecap:round;stroke-linejoin:round;-inkscape-stroke:none"
           d="m 156.54993,105.07066 -6.90014,4.94638 -6.89985,-4.94638 v 6.87663 a 5.8732988,5.8732988 62.818034 0 0 2.45131,4.77343 l 4.44854,3.18908 4.44879,-3.18913 a 5.873155,5.873155 117.18254 0 0 2.45135,-4.77338 z"
           id="path3507" />
        <path
           style="color:#000000;fill:#000000;stroke-linecap:round;stroke-linejoin:round;-inkscape-stroke:none"
           d="M 142.17969,103.95898 A 1.2501,1.2501 0 0 0 141.5,105.07031 v 6.87696 c 0,2.29492 1.1075,4.45196 2.97266,5.78906 l 4.44921,3.18945 a 1.2501,1.2501 0 0 0 1.45704,0 l 4.44726,-3.18945 c 1.86519,-1.33707 2.97461,-3.49414 2.97461,-5.78906 v -6.87696 a 1.2501,1.2501 0 0 0 -1.97851,-1.01562 l -6.17188,4.42383 -6.17187,-4.42383 a 1.2501,1.2501 0 0 0 -1.29883,-0.0957 z m 1.82031,3.54493 4.92187,3.52929 a 1.2501,1.2501 0 0 0 1.45704,0 l 4.92187,-3.52929 v 4.44336 c 0,1.49152 -0.71746,2.88882 -1.92969,3.75781 l -3.7207,2.66601 -3.7207,-2.66601 C 144.71747,114.83606 144,113.4388 144,111.94727 Z"
           id="path3509" />
      </g>
      <path
         id="path3513"
         style="fill:url(#linearGradient3525);fill-opacity:1;stroke:none;stroke-width:0.937052;stroke-linecap:round;stroke-linejoin:round"
         d="m 44.083869,75.776541 -10.07992,7.225784 16.32261,11.700511 a 15.22199,15.22199 0 0 0 1.56166,-6.698069 v -6.215893 l -6.96458,3.217113 z" />
      <path
         id="path3515"
         style="fill:#1e476a;fill-opacity:1;stroke:none;stroke-width:6.47935;stroke-linecap:round;stroke-linejoin:round"
         d="m 34.004009,83.001419 v 25.640421 l 11.53041,-8.26644 a 15.22199,15.22199 0 0 0 6.35385,-12.371526 V 70.181208 Z" />
      <path
         id="path3517"
         style="fill:#2c6ba0;fill-opacity:1;stroke:none;stroke-width:6.47935;stroke-linecap:round;stroke-linejoin:round"
         d="m 16.121059,70.181208 v 17.822666 a 15.222363,15.222363 0 0 0 6.35385,12.372866 l 11.5291,8.2651 V 83.001419 Z" />
      <path
         id="path3521"
         style="fill:none;stroke:#000000;stroke-width:2.3;stroke-linecap:round;stroke-linejoin:round;stroke-dasharray:none"
         d="m 29.41591,89.290987 c -1.6e-5,1.835688 -1.488114,3.323812 -3.323817,3.32381 -1.835679,4e-6 -3.323793,-1.488124 -3.323785,-3.323812"
         sodipodi:nodetypes="csc" />
      <ellipse
         style="fill:none;fill-opacity:1;stroke:#ffcc00;stroke-width:2.74674;stroke-linecap:square;stroke-dasharray:none;stroke-opacity:1"
         id="path5684"
         cx="-7.7005162"
         cy="80.757027"
         rx="11.012072"
         ry="3.6706908"
         transform="rotate(-30)" />
      <ellipse
         style="fill:none;fill-opacity:1;stroke:#ffcc00;stroke-width:2.74674;stroke-linecap:square;stroke-dasharray:none;stroke-opacity:1"
         id="ellipse7232"
         cx="66.087387"
         cy="47.047359"
         rx="11.012072"
         ry="3.6706908"
         transform="rotate(30)" />
      <path
         id="path7499"
         style="fill:none;stroke:#2c6ba0;stroke-width:2.3;stroke-linecap:round;stroke-linejoin:round;stroke-dasharray:none;stroke-opacity:1"
         d="m 45.348622,89.290987 c -1.6e-5,1.835688 -1.488114,3.323812 -3.323817,3.32381 -1.835679,4e-6 -3.323793,-1.488124 -3.323785,-3.323812"
         sodipodi:nodetypes="csc" />
    </g>
  </g>
</svg>
